<?xml version="1.0" encoding="UTF-8" standalone="no"?>
<svg
   xmlns:dc="http://purl.org/dc/elements/1.1/"
   xmlns:cc="http://creativecommons.org/ns#"
   xmlns:rdf="http://www.w3.org/1999/02/22-rdf-syntax-ns#"
   xmlns:svg="http://www.w3.org/2000/svg"
   xmlns="http://www.w3.org/2000/svg"
   viewBox="0 0 283.46667 283.46667"
   height="283.46667"
   width="283.46667"
   xml:space="preserve"
   id="svg2"
   version="1.1"><metadata
     id="metadata8"><rdf:RDF><cc:Work
         rdf:about=""><dc:format>image/svg+xml</dc:format><dc:type
           rdf:resource="http://purl.org/dc/dcmitype/StillImage" /></cc:Work></rdf:RDF></metadata><defs
     id="defs6" /><g
     transform="matrix(1.3333333,0,0,-1.3333333,0,283.46667)"
     id="g10"><g
       transform="scale(0.1)"
       id="g12"><path
         id="path14"
         style="fill:#f9b2a8;fill-opacity:1;fill-rule:nonzero;stroke:none"
         d="M 2125.98,1062.99 C 2125.98,475.922 1650.06,0 1062.99,0 475.918,0 0,475.922 0,1062.99 c 0,587.07 475.918,1062.99 1062.99,1062.99 587.07,0 1062.99,-475.92 1062.99,-1062.99" /><path
         id="path16"
         style="fill:#111111;fill-opacity:1;fill-rule:nonzero;stroke:none"
         d="m 1577.95,1629.3 c -0.95,0.49 -56.69,30.86 -56.69,30.86 -1,0.5 -74.16,43.17 -165.79,-33.56 -92.44,-77.22 -133.77,-220.91 -158.41,-321.1 l -88.66,-12.58 -5.84,-28.79 55.88,-30.43 18.77,2.66 -45.98,-155.52 v 0 c -12.72,-43.07 -67.1,-215.512 -113.57,-215.512 -13.92,0 -22.051,8.133 -22.051,22.043 0,4.68 7.011,36.008 15.051,68.551 l 40.76,162.558 c 8.01,32.5 13.87,65.06 13.87,81.33 0,62.65 -48.73,92.89 -105.712,92.89 -169.058,0 -288.758,-227.47 -322.691,-300.13 l 182.801,618.31 H 694.762 l -9.707,-32.72 h 85.019 L 542.445,808.391 h 46.719 c 156.102,381.319 296.035,443.829 334.031,433.939 29.504,-7.19 25.539,-39.02 7.414,-114.56 L 889.965,958.25 c -8.168,-34.871 -13.914,-68.539 -13.914,-82.48 0,-48.809 48.812,-67.379 88.207,-67.379 44.532,0 77.972,24.089 103.482,57.738 L 955.414,486.23 h -85.019 l -9.668,-32.691 h 125.015 l 233.158,788.711 190.22,26.8 5.83,28.82 -47.03,25.61 c 0,0 34.56,163.8 34.83,165.04 6.03,26.95 21.38,72.81 51.8,101.41 -0.14,-1.22 -6.82,-35.94 23.27,-53.27 0,0 53.21,-28.96 55.85,-30.36 2.59,-1.34 12.77,-6.92 27.76,-4.77 13.1,1.84 25.57,8.87 35.21,19.79 16.86,18.66 16.9,41.25 16.9,45.27 0,39.87 -24.58,56.52 -35.59,62.71" /></g></g></svg>